<?xml version="1.0" standalone="no"?>
<!DOCTYPE svg PUBLIC "-//W3C//DTD SVG 20010904//EN"
 "http://www.w3.org/TR/2001/REC-SVG-20010904/DTD/svg10.dtd">
<svg version="1.0" xmlns="http://www.w3.org/2000/svg"
 width="1024.000000pt" height="300pt" viewBox="0 0 1024.000000 300"
 preserveAspectRatio="xMidYMid meet">

<g transform="translate(0,1016) scale(0.100000,-0.100000)"
fill="#000000" stroke="none">
<path d="M3683 9209 c15 -9 17 -29 17 -184 0 -96 4 -175 8 -175 4 0 13 5 20
12 9 9 15 9 24 0 7 -7 19 -12 28 -11 9 0 6 4 -7 9 -23 9 -23 12 -23 185 l0
175 -42 0 c-34 -1 -39 -3 -25 -11z"/>
<path d="M3954 9204 c13 -13 16 -43 16 -174 0 -141 -2 -160 -17 -169 -14 -8
-5 -10 37 -10 30 0 49 3 43 6 -9 3 -13 26 -13 65 0 54 2 59 16 48 24 -21 66
-98 59 -110 -4 -6 11 -10 41 -10 l47 0 -20 23 c-11 12 -37 49 -58 81 l-37 60
45 43 46 43 -47 0 c-37 -1 -43 -3 -29 -11 9 -5 17 -16 17 -23 0 -13 -61 -76
-73 -76 -4 0 -7 52 -7 115 l0 115 -41 0 c-37 0 -39 -1 -25 -16z"/>
<path d="M4500 9205 c-17 -21 -5 -45 24 -45 28 0 37 17 24 43 -11 21 -31 22
-48 2z"/>
<path d="M6312 9213 c26 -7 29 -32 26 -206 -2 -86 -2 -157 0 -157 2 0 13 5 24
11 14 8 23 8 31 0 6 -6 16 -11 21 -11 6 0 0 7 -13 16 -22 16 -23 22 -19 100 5
89 16 114 54 114 40 0 57 -39 52 -121 -3 -60 -8 -74 -27 -90 -19 -15 -20 -19
-6 -19 49 0 85 53 85 125 0 102 -68 156 -134 104 l-26 -20 0 80 0 81 -42 -1
c-24 -1 -35 -3 -26 -6z"/>
<path d="M6580 9213 c27 -11 30 -26 30 -178 0 -152 -3 -167 -30 -178 -8 -3 14
-5 50 -5 36 0 58 2 50 5 -8 3 -18 11 -22 17 -4 6 -8 86 -8 179 l0 167 -42 -1
c-24 0 -36 -3 -28 -6z"/>
<path d="M6741 9206 c-16 -20 -3 -46 24 -46 13 0 26 7 29 16 7 19 -10 44 -29
44 -7 0 -18 -6 -24 -14z"/>
<path d="M5070 9151 c0 -16 3 -44 7 -62 7 -33 7 -33 14 -9 13 47 10 100 -6
100 -10 0 -15 -10 -15 -29z"/>
<path d="M2898 9153 c12 -2 30 -2 40 0 9 3 -1 5 -23 4 -22 0 -30 -2 -17 -4z"/>
<path d="M2985 9138 c11 -6 27 -16 35 -22 9 -6 5 -1 -8 12 -13 12 -28 22 -35
22 -7 0 -3 -6 8 -12z"/>
<path d="M2815 9130 c-3 -6 1 -7 9 -4 18 7 21 14 7 14 -6 0 -13 -4 -16 -10z"/>
<path d="M2764 9088 l-29 -33 33 29 c30 28 37 36 29 36 -2 0 -16 -15 -33 -32z"/>
<path d="M3083 9086 c8 -8 31 -65 52 -125 21 -61 41 -111 45 -111 3 0 19 41
35 90 16 50 32 87 36 83 4 -5 21 -43 37 -86 15 -43 32 -79 37 -80 4 -1 16 21
26 48 20 57 24 98 4 45 l-13 -35 -9 25 c-6 14 -21 55 -34 93 -13 37 -28 67
-34 67 -5 0 -23 -42 -39 -93 l-29 -92 -23 70 c-28 85 -29 102 -6 108 9 3 -9 5
-41 6 -51 1 -57 -1 -44 -13z"/>
<path d="M3368 9090 c12 -5 22 -17 22 -27 1 -16 2 -16 12 2 6 11 16 23 22 27
6 4 -9 7 -34 7 -37 0 -41 -2 -22 -9z"/>
<path d="M3510 9088 c-31 -16 -60 -72 -60 -116 0 -44 24 -98 48 -111 46 -24
112 -9 133 30 10 20 10 20 -19 -1 -41 -31 -78 -21 -98 25 -8 19 -14 46 -14 60
0 24 2 25 70 25 67 0 70 1 70 24 0 55 -75 92 -130 64z m67 -10 c6 -7 13 -25
15 -40 5 -27 4 -28 -43 -28 -27 0 -49 2 -49 5 0 3 7 21 14 40 16 36 44 47 63
23z"/>
<path d="M3790 9090 c-12 -8 -9 -10 13 -10 35 0 47 -29 47 -116 0 -56 -4 -68
-25 -89 -22 -23 -22 -25 -5 -25 10 0 31 11 47 24 24 21 28 32 31 94 4 68 3 73
-26 102 -31 31 -56 37 -82 20z"/>
<path d="M4200 9091 c0 -5 7 -11 15 -15 12 -4 15 -26 15 -105 0 -85 -3 -102
-17 -110 -14 -8 -5 -10 37 -10 30 0 49 3 43 6 -9 3 -13 33 -13 97 0 79 3 96
19 110 11 10 30 16 43 14 22 -3 23 -7 26 -103 2 -85 0 -102 -15 -112 -14 -11
-8 -13 43 -13 45 1 55 3 42 11 -15 8 -18 25 -18 104 0 82 -3 98 -20 115 -26
26 -60 25 -94 -1 l-26 -20 0 20 c0 18 -6 21 -40 21 -22 0 -40 -4 -40 -9z"/>
<path d="M4483 9089 c15 -9 17 -27 17 -148 0 -139 -5 -162 -40 -174 -12 -4
-11 -6 2 -6 10 -1 32 12 50 28 l33 29 3 141 4 141 -44 0 c-34 -1 -39 -3 -25
-11z"/>
<path d="M4695 9091 c27 -5 30 -10 33 -48 l3 -43 -58 -27 c-56 -27 -58 -29
-58 -68 0 -34 4 -41 28 -49 22 -8 35 -7 60 7 27 16 31 16 39 3 10 -18 53 -22
63 -6 3 6 -1 10 -9 10 -13 0 -16 16 -16 95 0 112 -14 136 -77 134 -37 -1 -37
-2 -8 -8z m35 -151 c0 -44 -3 -52 -25 -62 -35 -16 -61 8 -51 46 5 20 56 66 74
66 1 0 2 -23 2 -50z"/>
<path d="M4841 9088 c2 -24 17 -63 18 -47 2 26 35 49 70 49 18 0 31 -4 29 -8
-1 -4 -29 -58 -61 -120 l-58 -112 88 0 89 0 -5 43 c-3 23 -6 33 -9 22 -7 -34
-33 -55 -69 -55 -18 0 -33 2 -33 5 0 3 27 57 61 120 l61 115 -91 0 c-67 0 -91
-3 -90 -12z"/>
<path d="M5182 9084 c-34 -23 -29 -70 10 -102 83 -70 92 -87 62 -116 -14 -15
-14 -16 5 -16 21 0 61 44 61 67 0 14 -36 53 -94 100 -34 28 -32 64 4 74 l25 7
-25 1 c-14 1 -36 -6 -48 -15z"/>
<path d="M5297 9093 c-4 -7 -15 -9 -25 -6 -16 6 -16 5 -1 -13 9 -10 20 -28 24
-39 8 -19 9 -19 12 3 6 33 0 70 -10 55z"/>
<path d="M5470 9093 c26 -10 30 -25 30 -118 0 -93 -4 -108 -30 -118 -8 -3 17
-5 55 -5 39 0 63 2 55 5 -29 10 -40 37 -40 96 0 61 21 121 46 131 10 4 14 -2
14 -18 0 -29 24 -40 41 -20 9 11 10 20 2 32 -15 25 -42 26 -74 3 -29 -21 -29
-21 -29 -1 0 17 -6 20 -42 19 -24 0 -36 -3 -28 -6z"/>
<path d="M5765 9091 c27 -5 30 -10 33 -48 l3 -43 -58 -27 c-56 -27 -58 -29
-58 -68 0 -34 4 -41 28 -49 22 -8 35 -7 60 7 27 16 31 16 39 3 10 -18 53 -22
63 -6 3 6 -1 10 -9 10 -13 0 -16 16 -16 95 0 112 -14 136 -77 134 -37 -1 -37
-2 -8 -8z m35 -151 c0 -44 -3 -52 -25 -62 -35 -16 -61 8 -51 46 5 20 56 66 74
66 1 0 2 -23 2 -50z"/>
<path d="M5918 9080 c19 -18 22 -31 22 -108 0 -90 -4 -105 -30 -115 -8 -3 11
-6 43 -6 53 -1 57 0 43 15 -18 18 -22 126 -6 168 6 17 6 26 0 26 -6 0 -10 9
-10 20 0 17 -7 20 -42 20 l-42 0 22 -20z"/>
<path d="M6031 9091 c-11 -7 -9 -10 10 -13 23 -3 24 -6 27 -107 2 -77 -1 -107
-10 -113 -8 -4 10 -8 42 -8 43 1 51 3 37 11 -16 9 -18 23 -16 106 3 89 1 97
-20 114 -25 21 -48 24 -70 10z"/>
<path d="M6153 9083 c-10 -10 -13 -14 -7 -10 7 5 23 7 36 5 22 -3 23 -7 26
-102 2 -64 -1 -103 -9 -112 -10 -12 -3 -14 42 -14 42 1 50 3 37 11 -15 8 -18
25 -18 104 0 82 -3 98 -20 115 -25 25 -62 26 -87 3z"/>
<path d="M6723 9089 c14 -8 17 -25 17 -114 0 -89 -3 -106 -17 -114 -14 -8 -4
-10 42 -10 46 0 56 2 43 10 -16 9 -18 26 -18 124 l0 115 -42 0 c-34 -1 -39 -3
-25 -11z"/>
<path d="M6850 9091 c0 -5 7 -11 15 -15 12 -4 15 -26 15 -105 0 -85 -3 -102
-17 -110 -14 -8 -4 -10 42 -10 47 0 56 2 42 10 -15 9 -18 23 -17 97 2 153 5
142 -40 142 -22 0 -40 -4 -40 -9z"/>
<path d="M6963 9083 c-10 -10 -13 -14 -7 -10 7 5 23 7 36 5 22 -3 23 -7 26
-107 2 -77 -1 -107 -10 -113 -8 -4 10 -8 42 -8 42 1 51 3 38 11 -15 8 -18 25
-18 109 0 91 -2 100 -22 114 -29 21 -61 20 -85 -1z"/>
<path d="M7156 9077 c-14 -14 -26 -37 -26 -49 0 -29 26 -68 46 -68 19 0 18 -6
-6 -30 -24 -24 -25 -34 -4 -54 10 -10 33 -16 63 -16 70 0 97 -41 49 -74 -12
-9 -18 -16 -12 -16 18 0 62 39 69 61 4 12 0 30 -9 44 -14 21 -24 25 -69 25
-63 0 -86 12 -69 33 7 8 28 18 46 21 45 9 59 28 60 84 1 36 -3 48 -14 49 -8 1
-34 5 -57 8 -36 7 -45 4 -67 -18z m84 -6 c26 -49 -1 -127 -37 -105 -22 13 -30
88 -12 110 16 20 36 18 49 -5z"/>
<path d="M7314 9078 c1 -13 8 -24 19 -26 14 -3 18 1 15 20 -4 31 -36 37 -34 6z"/>
<path d="M7412 9084 c-34 -23 -29 -70 10 -102 83 -70 92 -87 62 -116 -14 -15
-14 -16 5 -16 21 0 61 44 61 67 0 14 -36 53 -94 100 -34 28 -32 64 4 74 l25 7
-25 1 c-14 1 -36 -6 -48 -15z"/>
<path d="M7527 9093 c-4 -7 -15 -9 -25 -6 -16 6 -16 5 -1 -13 9 -10 20 -28 24
-39 8 -19 9 -19 12 3 6 33 0 70 -10 55z"/>
<path d="M4632 9078 c-20 -20 -15 -58 8 -58 25 0 37 25 21 44 -6 7 -8 16 -4
19 3 4 2 7 -3 7 -6 0 -15 -5 -22 -12z"/>
<path d="M5702 9078 c-20 -20 -15 -58 8 -58 25 0 37 25 21 44 -6 7 -8 16 -4
19 3 4 2 7 -3 7 -6 0 -15 -5 -22 -12z"/>
<path d="M2842 9045 c-56 -47 -80 -136 -46 -169 19 -20 44 -20 69 -2 18 13 18
14 -7 9 -34 -7 -44 22 -28 86 13 54 43 94 68 89 24 -5 25 -35 4 -100 -17 -50
-17 -60 -5 -78 8 -11 24 -20 36 -20 16 0 18 3 8 9 -11 7 -10 24 8 101 12 51
19 95 17 97 -2 3 -13 0 -25 -6 -13 -7 -22 -8 -26 -1 -11 17 -42 11 -73 -15z"/>
<path d="M3053 9025 c0 -22 2 -30 4 -17 2 12 2 30 0 40 -3 9 -5 -1 -4 -23z"/>
<path d="M2720 9029 c-7 -11 -10 -23 -7 -25 2 -2 9 7 15 21 14 30 7 33 -8 4z"/>
<path d="M2701 8974 c0 -11 3 -14 6 -6 3 7 2 16 -1 19 -3 4 -6 -2 -5 -13z"/>
<path d="M2692 8915 c0 -16 2 -22 5 -12 2 9 2 23 0 30 -3 6 -5 -1 -5 -18z"/>
<path d="M5161 8904 c-1 -26 3 -41 12 -41 6 0 21 -4 32 -8 17 -7 17 -5 -2 9
-13 9 -27 31 -32 49 l-9 32 -1 -41z"/>
<path d="M7391 8904 c-1 -26 3 -41 12 -41 6 0 21 -4 32 -8 17 -7 17 -5 -2 9
-13 9 -27 31 -32 49 l-9 32 -1 -41z"/>
<path d="M2999 8903 l-24 -28 28 24 c25 23 32 31 24 31 -2 0 -14 -12 -28 -27z"/>
<path d="M7130 8835 c-30 -36 15 -76 85 -73 l40 1 -40 4 c-51 6 -68 20 -63 55
5 31 -3 36 -22 13z"/>
<path d="M2716 8827 c3 -10 9 -15 12 -12 3 3 0 11 -7 18 -10 9 -11 8 -5 -6z"/>
<path d="M2818 8773 c12 -2 30 -2 40 0 9 3 -1 5 -23 4 -22 0 -30 -2 -17 -4z"/>
<path d="M4030 8056 c0 -19 -4 -22 -25 -18 -33 6 -55 -14 -55 -48 0 -36 18
-50 63 -48 l37 1 0 69 c0 39 -4 68 -10 68 -5 0 -10 -11 -10 -24z m-5 -66 c0
-20 -6 -26 -27 -28 -24 -3 -28 0 -28 21 0 30 9 39 35 35 14 -2 20 -10 20 -28z"/>
<path d="M4693 8060 c-3 -11 -10 -20 -16 -20 -7 0 -7 -4 1 -12 7 -7 13 -30 14
-52 l1 -41 6 45 c5 37 10 46 29 48 20 3 22 -1 22 -42 0 -25 5 -46 10 -46 6 0
10 20 10 45 0 29 4 45 13 46 6 0 4 4 -7 8 -17 7 -17 8 -2 24 16 16 16 17 1 17
-9 0 -19 -9 -22 -20 -3 -13 -14 -20 -29 -20 -28 0 -31 15 -6 29 16 10 16 10
-1 11 -11 0 -21 -9 -24 -20z"/>
<path d="M5040 8055 c0 -22 -3 -24 -29 -19 -24 5 -32 1 -46 -20 -16 -24 -16
-28 -1 -51 13 -20 24 -24 51 -22 l35 2 0 68 c0 37 -2 67 -5 67 -3 0 -5 -11 -5
-25z m-10 -65 c0 -31 -25 -47 -46 -29 -19 16 -17 46 3 57 25 15 43 3 43 -28z"/>
<path d="M5623 8010 c-1 -70 0 -72 9 -32 8 35 13 42 34 42 21 0 24 -4 24 -40
0 -22 5 -40 10 -40 16 0 12 76 -5 90 -8 7 -25 10 -39 6 -21 -5 -25 -2 -29 21
-2 16 -4 -6 -4 -47z"/>
<path d="M6113 8010 c0 -55 1 -64 6 -35 5 34 10 40 31 40 21 0 26 -6 31 -40
l6 -40 2 46 c1 50 -13 65 -50 54 -13 -5 -19 1 -22 22 -2 15 -4 -6 -4 -47z"/>
<path d="M3561 8058 c1 -27 36 -112 46 -115 6 -2 17 13 23 34 18 57 26 59 40
9 7 -26 18 -46 24 -46 7 0 22 30 33 66 13 37 17 64 11 62 -6 -2 -18 -26 -26
-54 l-15 -49 -16 49 c-10 28 -22 51 -28 53 -5 2 -16 -17 -23 -42 -7 -25 -16
-47 -20 -50 -3 -2 -12 18 -19 45 -7 28 -17 50 -22 50 -5 0 -9 -6 -8 -12z"/>
<path d="M4384 8056 c-15 -12 -17 -18 -8 -33 6 -10 20 -20 30 -22 10 -2 25 -8
32 -14 22 -17 -13 -38 -44 -27 -15 6 -24 6 -24 0 0 -15 51 -24 69 -13 9 6 17
19 19 31 2 15 -5 23 -32 32 -49 16 -48 40 2 40 27 0 33 3 22 10 -21 14 -43 12
-66 -4z"/>
<path d="M4860 8005 c0 -37 4 -65 10 -65 6 0 10 28 10 65 0 37 -4 65 -10 65
-6 0 -10 -28 -10 -65z"/>
<path d="M5416 8043 c23 -93 46 -125 58 -79 3 14 11 38 17 53 l11 28 17 -49
c10 -28 22 -51 27 -53 9 -3 49 116 40 124 -2 2 -12 -18 -21 -46 -9 -28 -18
-51 -20 -51 -2 0 -11 23 -20 50 -9 28 -20 50 -25 50 -4 0 -13 -20 -20 -45 -7
-25 -16 -48 -20 -50 -4 -3 -13 16 -20 40 -14 50 -35 75 -24 28z"/>
<path d="M5852 8045 c0 -16 2 -22 5 -12 2 9 2 23 0 30 -3 6 -5 -1 -5 -18z"/>
<path d="M6523 8063 c-25 -9 -13 -23 11 -13 35 13 56 -13 32 -38 -23 -26 -20
-39 4 -17 45 40 9 91 -47 68z"/>
<path d="M4482 8045 c-7 -8 -8 -15 -3 -15 5 0 11 -19 13 -42 2 -34 7 -44 23
-46 16 -3 18 -1 8 9 -16 16 -17 79 -2 79 6 0 4 7 -5 15 -18 18 -18 18 -34 0z"/>
<path d="M6033 8045 c-6 -7 -8 -16 -3 -21 5 -5 10 -25 12 -44 2 -24 9 -36 21
-38 9 -2 17 1 17 7 0 6 -6 10 -12 9 -8 -2 -14 11 -16 35 -3 30 0 37 15 38 14
0 15 2 3 6 -8 3 -17 9 -20 13 -3 4 -10 2 -17 -5z"/>
<path d="M3776 8024 c-31 -30 -9 -84 34 -84 24 0 50 26 50 50 0 24 -26 50 -50
50 -10 0 -26 -7 -34 -16z m59 -34 c0 -18 -6 -26 -23 -28 -24 -4 -38 18 -28 44
3 9 15 14 28 12 17 -2 23 -10 23 -28z"/>
<path d="M3880 7989 c0 -27 5 -49 10 -49 6 0 10 16 10 35 0 22 6 38 15 41 23
9 18 22 -10 22 -23 0 -25 -4 -25 -49z"/>
<path d="M4080 8030 c-20 -13 -2 -44 29 -48 32 -5 25 -22 -10 -22 -17 0 -28
-4 -24 -10 10 -16 51 -12 66 6 11 14 10 18 -6 30 -10 8 -25 14 -32 14 -7 0
-13 5 -13 10 0 6 11 10 25 10 14 0 25 5 25 10 0 13 -40 13 -60 0z"/>
<path d="M4560 8001 c0 -46 15 -61 58 -58 31 2 32 3 32 50 0 26 -4 47 -10 47
-5 0 -10 -18 -10 -39 0 -22 -5 -41 -12 -43 -26 -10 -38 4 -38 43 0 21 -4 39
-10 39 -5 0 -10 -17 -10 -39z"/>
<path d="M5098 8029 c-26 -15 -23 -65 3 -80 34 -18 69 3 69 40 0 42 -36 62
-72 40z m46 -15 c20 -19 20 -29 0 -48 -19 -20 -54 -5 -54 24 0 15 21 37 37 40
1 0 9 -7 17 -16z"/>
<path d="M5744 8015 c-15 -23 -15 -27 0 -50 19 -29 47 -32 70 -9 31 30 9 84
-34 84 -11 0 -27 -11 -36 -25z m66 -25 c0 -31 -16 -42 -42 -28 -23 11 -23 44
-1 56 25 15 43 3 43 -28z"/>
<path d="M5889 8024 c-11 -14 -10 -18 6 -30 10 -8 25 -14 33 -14 7 0 12 -6 9
-12 -2 -7 -17 -12 -33 -11 -28 2 -29 2 -6 -9 16 -8 29 -9 40 -2 28 18 25 35
-7 47 -34 13 -36 33 -2 30 11 -2 21 2 21 7 0 16 -46 11 -61 -6z"/>
<path d="M6238 8029 c-22 -12 -23 -52 -2 -73 17 -18 50 -21 59 -6 4 6 -7 10
-24 10 -21 0 -31 5 -31 15 0 10 11 15 35 15 39 0 48 22 16 40 -24 12 -31 12
-53 -1z m39 -27 c-34 -4 -48 5 -27 18 8 5 22 4 34 -3 20 -11 20 -12 -7 -15z"/>
<path d="M6341 7985 l1 -50 10 43 c5 25 15 42 24 42 8 0 14 4 14 9 0 5 -11 8
-25 7 -23 -1 -25 -4 -24 -51z"/>
<path d="M6414 8016 c-15 -24 -15 -28 0 -51 17 -27 41 -32 66 -14 12 9 11 10
-6 6 -23 -5 -54 8 -54 23 0 6 19 10 41 10 41 0 41 0 27 23 -22 32 -53 33 -74
3z m56 -1 c11 -13 8 -15 -20 -15 -28 0 -31 2 -20 15 7 8 16 15 20 15 4 0 13
-7 20 -15z"/>
<path d="M3703 7923 c87 -2 227 -2 310 0 84 1 13 3 -158 3 -170 0 -239 -2
-152 -3z"/>
<path d="M4568 7923 c116 -2 308 -2 425 0 116 1 21 2 -213 2 -234 0 -329 -1
-212 -2z"/>
<path d="M5703 7923 c169 -2 445 -2 615 0 169 1 30 2 -308 2 -338 0 -477 -1
-307 -2z"/>
</g>
</svg>
